<?xml version="1.0" standalone="no"?><svg xmlns="http://www.w3.org/2000/svg" viewBox="0 0 1440 320"><path fill="#6495ED" fill-opacity="1" d="M0,32L30,53.3C60,75,120,117,180,149.3C240,181,300,203,360,197.3C420,192,480,160,540,133.3C600,107,660,85,720,74.7C780,64,840,64,900,85.3C960,107,1020,149,1080,160C1140,171,1200,149,1260,160C1320,171,1380,213,1410,234.7L1440,256L1440,0L1410,0C1380,0,1320,0,1260,0C1200,0,1140,0,1080,0C1020,0,960,0,900,0C840,0,780,0,720,0C660,0,600,0,540,0C480,0,420,0,360,0C300,0,240,0,180,0C120,0,60,0,30,0L0,0Z"></path></svg>