<?xml version="1.0" standalone="no"?><svg xmlns="http://www.w3.org/2000/svg" viewBox="0 0 1440 320"><path fill="#6495ED" fill-opacity="1" d="M0,128L30,112C60,96,120,64,180,64C240,64,300,96,360,101.3C420,107,480,85,540,106.7C600,128,660,192,720,213.3C780,235,840,213,900,218.7C960,224,1020,256,1080,256C1140,256,1200,224,1260,208C1320,192,1380,192,1410,192L1440,192L1440,0L1410,0C1380,0,1320,0,1260,0C1200,0,1140,0,1080,0C1020,0,960,0,900,0C840,0,780,0,720,0C660,0,600,0,540,0C480,0,420,0,360,0C300,0,240,0,180,0C120,0,60,0,30,0L0,0Z"></path></svg>